<svg width="19" height="13" viewBox="0 0 19 13" fill="none" xmlns="http://www.w3.org/2000/svg">
<path d="M9.5 4.25C8.90326 4.25 8.33097 4.48705 7.90901 4.90901C7.48705 5.33097 7.25 5.90326 7.25 6.5C7.25 7.09674 7.48705 7.66903 7.90901 8.09099C8.33097 8.51295 8.90326 8.75 9.5 8.75C10.0967 8.75 10.669 8.51295 11.091 8.09099C11.5129 7.66903 11.75 7.09674 11.75 6.5C11.75 5.90326 11.5129 5.33097 11.091 4.90901C10.669 4.48705 10.0967 4.25 9.5 4.25Z" fill="#ADADAD"/>
<path fill-rule="evenodd" clip-rule="evenodd" d="M9.5 0C6.882 0 4.528 1.051 2.832 2.353C1.982 3.005 1.285 3.729 0.796 4.433C0.316 5.125 0 5.851 0 6.5C0 7.149 0.317 7.875 0.796 8.566C1.286 9.271 1.982 9.995 2.832 10.646C4.528 11.95 6.882 13 9.5 13C12.118 13 14.472 11.949 16.168 10.647C17.018 9.995 17.715 9.271 18.203 8.567C18.683 7.875 19 7.149 19 6.5C19 5.851 18.683 5.125 18.203 4.434C17.715 3.729 17.018 3.005 16.168 2.354C14.472 1.05 12.118 0 9.5 0ZM5.75 6.5C5.75 5.50544 6.14509 4.55161 6.84835 3.84835C7.55161 3.14509 8.50544 2.75 9.5 2.75C10.4946 2.75 11.4484 3.14509 12.1517 3.84835C12.8549 4.55161 13.25 5.50544 13.25 6.5C13.25 7.49456 12.8549 8.44839 12.1517 9.15165C11.4484 9.85491 10.4946 10.25 9.5 10.25C8.50544 10.25 7.55161 9.85491 6.84835 9.15165C6.14509 8.44839 5.75 7.49456 5.75 6.5Z" fill="#ADADAD"/>
</svg>
